<svg class="svg-icon" style="width: 1em; height: 1em;vertical-align: middle;fill: currentColor;overflow: hidden;" viewBox="0 0 1024 1024" version="1.1" xmlns="http://www.w3.org/2000/svg"><path d="M226.2 435.12a42.4 42.4 0 0 0-7.72 15.56l-68 265a50 50 0 0 0 23.76 56q127.12 72 337.2 72t336.8-72.48a50 50 0 0 0 23.76-54.88l-62.68-264a42 42 0 0 0-9.12-17.8c-43.68-50.44-140-76.4-289.16-76.4-149.76-0.12-244.76 26.12-284.84 77z" fill="#7F492D" /><path d="M511.56 853.72c-141 0-256-24.68-342.12-73.4a60 60 0 0 1-28.56-67.12l68-265a52.44 52.44 0 0 1 9.52-19.28C260.64 375.24 359.16 348 511.2 348c151.04 0 250.84 26.88 296.72 80a52.2 52.2 0 0 1 11.28 22.04l62.68 264a60.36 60.36 0 0 1-28.52 65.96c-85.36 48.92-200.44 73.72-341.8 73.72zM511.2 368c-145.6 0-238.84 24.68-277.16 73.32a31.56 31.56 0 0 0-5.84 12l-68 265a40 40 0 0 0 19.04 44.76c82.96 47 194.72 70.8 332.24 70.8s249.48-24 332-71.16a40 40 0 0 0 19-44l-62.64-264a32.28 32.28 0 0 0-6.96-13.56C750.92 392.56 656 368 511.2 368z" fill="#600000" /><path d="M200.52 455.28c-45.68 71.68-53.56 119.2-66.56 182.12s-12.28 89.12 5.76 99.24 42.32-6 42.32-32.24-5.2-93.16 42.08-80 53.32 68.32 53.32 95.4-29.8 96.2 17.88 102.76 47.72-39.56 37.28-68-12-49.96 38.64-49.96 74.68 0 74.68-50.84 62.36-52.92 62.36-16-14.76 62.48 0 82.32 44.64 18.48 55.12-3.32-10.68-49.44-10.68-79 21.6-98.68 68.64-98.68q47.04 0 60 49.8 4.68 65.04 35.28 65.04c30.64 0 30.64-47.04 39.24-65.04s29.44-16 42.2 36 65.84 117.2 88.92 95.4-16.68-54.52-30.6-95.4-13.92-142.96-58.32-193.32-109.6-105.8-345.2-89.16c-101.52 7.16-206.72 41.24-252.36 112.88z" fill="#FFFFFF" /><path d="M304 833.16a74.44 74.44 0 0 1-9.96-0.68 38.44 38.44 0 0 1-27.44-15.36c-13.44-18.8-7.52-48.84-2.76-72.96a156 156 0 0 0 3.68-24.44c0-27.28-5.96-74.72-45.96-85.76-11.6-3.2-16 0.32-17.6 1.44-12.68 9.8-12 43.52-12 61.6v7.4a46.12 46.12 0 0 1-21.88 40 35.24 35.24 0 0 1-35.32 0.92c-25.32-14.16-23.44-48-10.68-110l2.16-10.52c12-59.08 21.68-105.76 65.76-174.92 20-31.24 85.08-105.16 260-117.52 236.72-16.68 306.64 38.72 353.56 92 32.52 36.88 42.2 97.32 50 145.92a354.76 354.76 0 0 0 10.28 50.76 200 200 0 0 0 19.64 38.28c14.32 23.6 29.12 48 8.32 67.64a26.6 26.6 0 0 1-26.88 5.64c-32-9.36-68.4-64.64-78.56-105.92-7.56-30.52-16.88-38.2-19.56-38.44-0.68 0-2.4 1.32-4 4.56a102.44 102.44 0 0 0-5.2 17.56c-5.12 21.16-12.88 53.16-43.08 53.16-26.32 0-41.52-24.68-45.16-73.36-7.72-28.32-23.72-41.48-50.28-41.48-38.68 0-58.64 62.16-58.64 88.68a116.52 116.52 0 0 0 6.88 33.12c5.2 16.76 10.56 34.08 2.8 50.24a40.28 40.28 0 0 1-32.68 22.76 43.76 43.76 0 0 1-39.44-17.8c-12-16-8.84-34.28-5.64-53.68a204 204 0 0 0 3.64-34.64c0-14.4-13.56-15.12-16.28-15.12-12.56 0-26.08 9.76-26.08 31.28 0 60.84-33.68 60.84-84.68 60.84-23.72 0-30.76 5-32.84 8-4 5.64 0 18.24 3.6 28.56 7.24 20 10.52 49.56-4 67.64-5.44 7-15.72 14.6-33.72 14.6z m-91.2-220.52a52.88 52.88 0 0 1 14 2.04c54.72 15.12 60.64 78.52 60.64 105.04a161.88 161.88 0 0 1-4 28.28c-4 20.36-9 45.72-0.6 57.48a19.12 19.12 0 0 0 13.88 7.16c12 1.68 20.8-0.56 25.68-6.64 8.72-10.8 6.56-32.56 0.84-48.2-6.04-16.64-10.36-33.8-1.2-46.92 8-11.24 23.52-16.48 49.24-16.48 53.4 0 64.68-1.36 64.68-40.84 0-33.68 23.16-51.28 46.08-51.28 21.04 0 36.28 14.76 36.28 35.12a223.52 223.52 0 0 1-4 37.92c-3.08 18.72-4.52 29.72 1.96 38.44a24 24 0 0 0 21.48 9.88 20.2 20.2 0 0 0 16.64-11.64c4.36-9.08 0.52-21.36-4-35.64a132.72 132.72 0 0 1-7.8-39.04 152 152 0 0 1 17.88-65.16c15.32-28.48 36.32-43.52 60.76-43.52 35.8 0 60 19.8 69.84 57.24l0.32 1.84c1.8 25.44 7.64 55.76 25.28 55.76 13.44 0 18.28-15.72 23.64-37.88a118.24 118.24 0 0 1 6.56-21.48c5.24-10.92 14.2-16.84 24-16 11.08 1.12 26.48 11.36 36.92 53.56 10.2 41.36 44.76 85.64 64.8 91.52 4.92 1.48 6.68-0.2 7.52-0.96 8.24-7.76 3.04-18.44-11.72-42.76a219.52 219.52 0 0 1-21.44-42.2c-4.6-13.48-7.64-32.28-11.12-54.04-7.36-46.04-16.56-103.32-45.24-136-33.84-38.4-90.48-102.64-337.16-85.24-115.16 8-206.6 48.6-244.64 108.32-42.12 66.04-51.36 111.12-63.04 168l-2.16 10.56c-12 57.52-11.68 81.52 0.84 88.52a15.24 15.24 0 0 0 15.44-0.76 25.96 25.96 0 0 0 12-22.76v-7.08c-0.36-24.64-0.92-61.84 19.68-77.72a33.64 33.64 0 0 1 21.24-6.44z" fill="#600000" /><path d="M462 354m-38 0a38 38 0 1 0 76 0 38 38 0 1 0-76 0Z" fill="#FB5957" /><path d="M462 402a48 48 0 1 1 48-48 48 48 0 0 1-48 48z m0-76a28 28 0 1 0 28 28 28 28 0 0 0-28-28z" fill="#600000" /><path d="M461.48 339.36a10 10 0 0 1-10-9.72c-0.44-16-3.48-36-15.6-41.56a10 10 0 0 1 8.12-18.24c17.28 8 26.48 27.76 27.36 59.24a10 10 0 0 1-9.72 10.28z" fill="#600000" /><path d="M532 352m-32 0a32 32 0 1 0 64 0 32 32 0 1 0-64 0Z" fill="#FB5957" /><path d="M532 394A42 42 0 1 1 574 352 42.04 42.04 0 0 1 532 394z m0-64a22 22 0 1 0 22 22 22.04 22.04 0 0 0-22-22z" fill="#600000" /><path d="M532.44 342.16H532a10 10 0 0 1-9.56-10.16c0.76-26.8 8.84-44 24-50.56a10 10 0 1 1 8 18.28c-9.4 4-12 20-12 32.84a10 10 0 0 1-10 9.6z" fill="#600000" /></svg>