<svg class="svg-icon" style="width: 1em;height: 1em;vertical-align: middle;fill: currentColor;overflow: hidden;" viewBox="0 0 1024 1024" version="1.1" xmlns="http://www.w3.org/2000/svg"><path d="M919.98 594.8v144.92l-762.86-98.6V496.21z" fill="#B18300" /><path d="M157.49 666.56v144.91C98.6 781.19 78.9 752.16 78.9 726.89V581.98c0 25.27 19.7 54.29 78.59 84.58" fill="#857400" /><path d="M919.98 594.8v144.92l-762.49 71.76V666.56z" fill="#D2B900" /><path d="M157.12 496.21l762.86 98.59-762.49 71.76c-166.06-85.41-20.49-160.74-0.37-170.35z" fill="#C0A900" /><path d="M157.12 492.24l797.7 103.1L153.2 670.8l-2.14-1.03c-185.06-93.82-1.58-176.13 0.28-176.96l2.33-1 3.45 0.43z m0 3.97c-20.12 9.61-165.69 84.94 0.37 170.35l762.49-71.76-762.86-98.59" fill="#C08E00" /><path d="M157.12 496.21v144.91c-0.22 0.11-0.46 0.22-0.71 0.34V496.55c0.25-0.12 0.48-0.24 0.71-0.34" fill="#C79300" /><path d="M156.41 496.55v144.91c-2.98 1.45-8.03 4-14.17 7.55V504.1c6.14-3.55 11.18-6.11 14.17-7.55" fill="#C28F00" /><path d="M142.24 504.1v144.91c-4.58 2.65-9.77 5.85-15.16 9.56V513.66c5.39-3.7 10.58-6.91 15.16-9.56" fill="#BD8B00" /><path d="M127.08 513.66v144.91c-4.31 2.97-8.76 6.25-13.11 9.83V523.49c4.35-3.58 8.79-6.87 13.11-9.83" fill="#B88700" /><path d="M113.96 523.49V668.4c-3.69 3.03-7.33 6.28-10.78 9.72V533.21c3.45-3.44 7.09-6.68 10.78-9.72" fill="#B38400" /><path d="M103.18 533.21v144.91a117.34 117.34 0 0 0-8.6 9.54V542.75c2.67-3.32 5.57-6.51 8.6-9.54" fill="#AD8000" /><path d="M94.59 542.75v144.91c-2.41 3.01-4.63 6.13-6.59 9.36V552.11c1.96-3.23 4.18-6.35 6.59-9.36" fill="#A87C00" /><path d="M87.99 552.11v144.91a70.559 70.559 0 0 0-4.78 9.31V561.42c1.34-3.19 2.95-6.29 4.78-9.31" fill="#A37800" /><path d="M83.22 561.42v144.91c-1.28 3.07-2.32 6.21-3.05 9.43V570.85a56.66 56.66 0 0 1 3.05-9.43" fill="#9E7500" /><path d="M80.17 570.85v144.91c-0.73 3.2-1.16 6.46-1.25 9.8V580.65c0.09-3.34 0.52-6.61 1.25-9.8" fill="#997100" /><path d="M78.92 580.65v144.91c-0.01 0.44-0.02 0.89-0.02 1.33V581.98c0-0.45 0.01-0.89 0.02-1.33" fill="#946D00" /><path d="M954.81 595.34v144.91L153.2 815.71V670.8z" fill="#633400" /><path d="M157.49 522.12v144.91c-58.89-30.28-78.59-59.3-78.59-84.58V437.54c0 25.27 19.7 54.29 78.59 84.58" fill="#857400" /><path d="M919.98 450.36v144.92l-762.49 71.76V522.12z" fill="#D2B900" /><path d="M954.81 450.9v144.91L153.2 671.28V526.36z" fill="#FBCFCF" /><path d="M919.98 314.07v144.92l-762.49 71.76V385.83z" fill="#D2B900" /><path d="M954.81 315.38l-801.68 75.44-2.07-1.03c-185.13-93.76-1.66-176.13 0.21-176.96l2.38-0.93 3.42 0.41 797.74 103.07z" fill="#754000" /><path d="M153.17 390.04v425.62l-2.07-0.93c-61.99-31.46-82.68-61.57-82.68-87.75V301.35c0 26.18 20.7 56.29 82.68 87.65l2.07 1.04z" fill="#6D3900" /><path d="M954.81 314.61v144.91L153.2 534.99V390.07z" fill="#633400" /><path d="M128.56 727.79H115.5c-0.28 0-0.51-0.23-0.51-0.51v-319.7c0-0.28 0.23-0.51 0.51-0.51h13.07c0.28 0 0.51 0.23 0.51 0.51v319.7c0 0.28-0.23 0.51-0.52 0.51zM93.91 626.45H80.84c-0.28 0-0.51-0.23-0.51-0.51V497.4c0-0.28 0.23-0.51 0.51-0.51h13.07c0.28 0 0.51 0.23 0.51 0.51v128.53c0.01 0.29-0.22 0.52-0.51 0.52z" fill="#87470E" /></svg>